<?xml version="1.0" encoding="UTF-8"?>
<svg width="32px" height="32px" viewBox="0 0 32 32" version="1.1" xmlns="http://www.w3.org/2000/svg" xmlns:xlink="http://www.w3.org/1999/xlink">
    <title>88496FAB-ADD2-4A2B-80B9-071C72346F7C</title>
    <g id="v2" stroke="none" stroke-width="1" fill="none" fill-rule="evenodd">
        <g id="desktop---quote-start" transform="translate(-384.000000, -250.000000)" fill="#30C6E2" fill-rule="nonzero">
            <g id="✳️-molecules/summary-page/logged-in-summary/driver-details" transform="translate(360.000000, 225.000000)">
                <g id="title-row" transform="translate(24.000000, 24.000000)">
                    <g id="buy-again-icon" transform="translate(0.000000, 1.000000)">
                        <g id="cart-plus" transform="translate(0.000000, 2.000000)">
                            <path d="M30.6666667,3.55555538 L8.845,3.55555538 L11.7538889,17.7777778 L28.04,17.7777778 C28.6624473,17.7777778 29.2020242,17.3469624 29.34,16.74 L31.9661111,5.18444444 C32.1292481,4.4664903 31.6795818,3.75219739 30.9616667,3.58888889 C30.8649052,3.56668724 30.7659425,3.55555538 30.6666667,3.55555538 Z M24.8888889,11.1111111 C24.8888889,11.6020309 24.4909198,12 24,12 L21.7777778,12 L21.7777778,14.2222222 C21.7777778,14.713142 21.3798087,15.1111111 20.8888889,15.1111111 L20,15.1111111 C19.5090802,15.1111111 19.1111111,14.713142 19.1111111,14.2222222 L19.1111111,12 L16.8888889,12 C16.3979691,12 16,11.6020309 16,11.1111111 L16,10.2222222 C16,9.73130244 16.3979691,9.33333333 16.8888889,9.33333333 L19.1111111,9.33333333 L19.1111111,7.11111111 C19.1111111,6.62019133 19.5090802,6.22222222 20,6.22222222 L20.8888889,6.22222222 C21.3798087,6.22222222 21.7777778,6.62019133 21.7777778,7.11111111 L21.7777778,9.33333333 L24,9.33333333 C24.4909198,9.33333333 24.8888889,9.73130244 24.8888889,10.2222222 L24.8888889,11.1111111 Z" id="Shape" opacity="0.4"></path>
                            <path d="M28.0233333,22.5333333 L28.33,21.1844444 C28.4198931,20.7890004 28.3249303,20.3741393 28.0719653,20.0571764 C27.8190004,19.7402135 27.4355327,19.5556052 27.03,19.5555556 L12.1177778,19.5555556 L8.33333333,1.06611111 C8.20657513,0.446464949 7.66192189,0.00113492933 7.02944444,0 L1.33333333,0 C0.596953667,0 0,0.596953667 0,1.33333333 L0,2.22222222 C0,2.95860189 0.596953667,3.55555556 1.33333333,3.55555556 L5.21555556,3.55555556 L9.11833333,22.635 C7.95894765,23.3000466 7.35390377,24.6313027 7.61529551,25.9420798 C7.87668726,27.2528568 8.94609404,28.2501984 10.2718943,28.4196556 C11.5976945,28.5891129 12.8835743,27.8928124 13.4662509,26.68992 C14.0489274,25.4870276 13.7981736,24.0463876 12.8433333,23.1111111 L24.49,23.1111111 C23.5210232,24.0604844 23.2788935,25.5282567 23.8916028,26.7385513 C24.504312,27.9488459 25.8305922,28.6226139 27.1693605,28.4036958 C28.5081287,28.1847777 29.550715,27.1236479 29.7459993,25.7812286 C29.9412836,24.4388093 29.2442407,23.1246123 28.0233333,22.5333333 Z M16.8888889,12 L19.1111111,12 L19.1111111,14.2222222 C19.1111111,14.713142 19.5090802,15.1111111 20,15.1111111 L20.8888889,15.1111111 C21.3798087,15.1111111 21.7777778,14.713142 21.7777778,14.2222222 L21.7777778,12 L24,12 C24.4909198,12 24.8888889,11.6020309 24.8888889,11.1111111 L24.8888889,10.2222222 C24.8888889,9.73130244 24.4909198,9.33333333 24,9.33333333 L21.7777778,9.33333333 L21.7777778,7.11111111 C21.7777778,6.62019133 21.3798087,6.22222222 20.8888889,6.22222222 L20,6.22222222 C19.5090802,6.22222222 19.1111111,6.62019133 19.1111111,7.11111111 L19.1111111,9.33333333 L16.8888889,9.33333333 C16.3979691,9.33333333 16,9.73130244 16,10.2222222 L16,11.1111111 C16,11.6020309 16.3979691,12 16.8888889,12 Z" id="Shape"></path>
                        </g>
                    </g>
                </g>
            </g>
        </g>
    </g>
</svg>
