<?xml version="1.0" encoding="UTF-8"?>
<svg width="16px" height="16px" viewBox="0 0 16 16" version="1.1" xmlns="http://www.w3.org/2000/svg" xmlns:xlink="http://www.w3.org/1999/xlink">
    <title>932A462C-0603-447E-809A-A4D1246B2918</title>
    <g id="v2" stroke="none" stroke-width="1" fill="none" fill-rule="evenodd">
        <g id="desktop---quote-start" transform="translate(-692.000000, -259.000000)" fill="#FFFFFF" fill-rule="nonzero">
            <g id="✳️-molecules/summary-page/logged-in-summary/driver-details" transform="translate(360.000000, 225.000000)">
                <g id="new-tab" transform="translate(322.000000, 27.000000)">
                    <g id="sparkles" transform="translate(10.000000, 7.000000)">
                        <path d="M13.2034241,5.87019455 L13.9766537,4.0155642 L15.831284,3.24233463 C15.9158075,3.20020831 15.9692287,3.11389487 15.9692287,3.01945525 C15.9692287,2.92501563 15.9158075,2.83870219 15.831284,2.79657588 L13.9766537,2.0233463 L13.2034241,0.168715953 C13.1612978,0.0841924944 13.0749844,0.0307713341 12.9805447,0.0307713341 C12.8861051,0.0307713341 12.7997917,0.0841924944 12.7576654,0.168715953 L11.9844358,2.0233463 L10.1298054,2.79657588 C10.045282,2.83870219 9.99186083,2.92501563 9.99186083,3.01945525 C9.99186083,3.11389487 10.045282,3.20020831 10.1298054,3.24233463 L11.9844358,4.0155642 L12.7576654,5.87019455 C12.7997917,5.95471801 12.8861051,6.00813917 12.9805447,6.00813917 C13.0749844,6.00813917 13.1612978,5.95471801 13.2034241,5.87019455 L13.2034241,5.87019455 Z M12.7576654,10.1298054 L11.9844358,11.9844358 L10.1298054,12.7576654 C10.045282,12.7997917 9.99186083,12.8861051 9.99186083,12.9805447 C9.99186083,13.0749844 10.045282,13.1612978 10.1298054,13.2034241 L11.9844358,13.9766537 L12.7576654,15.831284 C12.7997917,15.9158075 12.8861051,15.9692287 12.9805447,15.9692287 C13.0749844,15.9692287 13.1612978,15.9158075 13.2034241,15.831284 L13.9766537,13.9766537 L15.831284,13.2034241 C15.9158075,13.1612978 15.9692287,13.0749844 15.9692287,12.9805447 C15.9692287,12.8861051 15.9158075,12.7997917 15.831284,12.7576654 L13.9766537,11.9844358 L13.2034241,10.1298054 C13.1612978,10.045282 13.0749844,9.99186083 12.9805447,9.99186083 C12.8861051,9.99186083 12.7997917,10.045282 12.7576654,10.1298054 Z" id="Shape"></path>
                        <path d="M11.9844359,7.98879377 C11.9842529,7.8000852 11.8778244,7.62756029 11.7092607,7.54272374 L8.20513619,5.787393 L6.45322957,2.2770428 C6.28389105,1.93867704 5.73136187,1.93867704 5.56233463,2.2770428 L3.81042802,5.787393 L0.306303502,7.54272374 C0.136740842,7.62678804 0.0294749332,7.79969217 0.0294749332,7.98894942 C0.0294749332,8.17820666 0.136740842,8.35111079 0.306303502,8.4351751 L3.81042802,10.1905058 L5.56233463,13.700856 C5.6467114,13.8695604 5.81915392,13.9761218 6.0077821,13.9761218 C6.19641028,13.9761218 6.3688528,13.8695604 6.45322957,13.700856 L8.20513619,10.1905058 L11.7092607,8.43579767 C11.8780738,8.35075437 11.9844359,8.17781811 11.9844359,7.98879377 Z" id="Path"></path>
                    </g>
                </g>
            </g>
        </g>
    </g>
</svg>
