<?xml version="1.0" encoding="UTF-8"?>
<svg width="32px" height="26px" viewBox="0 0 32 26" version="1.1" xmlns="http://www.w3.org/2000/svg" xmlns:xlink="http://www.w3.org/1999/xlink">
    <title>car-icn-tc</title>
    <g id="v2" stroke="none" stroke-width="1" fill="none" fill-rule="evenodd">
        <g id="Car-Reg-Modal" transform="translate(-3083.000000, -36.000000)" fill="#36CECE">
            <g id="✳️-molecules/summary-page/driver-details" transform="translate(3027.000000, 32.000000)">
                <g id="summary">
                    <g id="title-row" transform="translate(8.000000, 0.000000)">
                        <g id="⚛-atoms/summary/title-row">
                            <g id="⚛-atoms/icons/32/summary/tc/car" transform="translate(48.000000, 0.000000)">
                                <g id="Icon">
                                    <path d="M11.7666667,8.37823834 L20.2333333,8.37823834 C21.5418504,8.37811666 22.7186071,9.18293278 23.2046667,10.4104145 L24.5333333,13.7668394 L7.46666667,13.7668394 L8.79533333,10.4104145 C9.28139289,9.18293278 10.4581496,8.37811666 11.7666667,8.37823834 Z M27.7333333,25.6217617 L24.5333333,25.6217617 L24.5333333,27.7772021 C24.5333333,28.9676189 25.4884592,29.9326425 26.6666667,29.9326425 L28.8,29.9326425 C29.9782075,29.9326425 30.9333333,28.9676189 30.9333333,27.7772021 L30.9333333,24.5440415 C30.9332571,24.4266935 30.9236695,24.309549 30.9046667,24.1937824 C30.0966175,25.1037431 28.9433219,25.6230459 27.7333333,25.6217617 Z M4.26666667,25.6217617 C3.05667811,25.6230459 1.9033825,25.1037431 1.09533333,24.1937824 C1.07630369,24.3095456 1.06666667,24.4266924 1.06666667,24.5440415 L1.06666667,27.7772021 C1.06666667,28.9676189 2.02179253,29.9326425 3.2,29.9326425 L5.33333333,29.9326425 C6.5115408,29.9326425 7.46666667,28.9676189 7.46666667,27.7772021 L7.46666667,25.6217617 L4.26666667,25.6217617 Z" id="Shape" fill-rule="nonzero"></path>
                                    <path d="M29.244,14.0584974 L27.166,8.80932642 C26.0401695,5.93862156 23.289501,4.05715441 20.2333333,4.0673155 L11.7666667,4.0673155 C8.71031307,4.057066 5.95940535,5.93851584 4.83333333,8.80932642 L2.756,14.0584974 C1.0997277,14.6891414 0.00242359883,16.2893989 0,18.0777202 L0,21.3108808 C0,23.6917146 1.91025173,25.6217617 4.26666667,25.6217617 L27.7333333,25.6217617 C30.0897483,25.6217617 32,23.6917146 32,21.3108808 L32,18.0777202 C31.9975764,16.2893989 30.9002723,14.6891414 29.244,14.0584974 Z M8.79533333,10.4104145 C9.28139289,9.18293278 10.4581496,8.37811666 11.7666667,8.37823834 L20.2333333,8.37823834 C21.5418504,8.37811666 22.7186071,9.18293278 23.2046667,10.4104145 L24.5333333,13.7668394 L7.46666667,13.7668394 L8.79533333,10.4104145 Z M5.33333333,21.2974093 C4.05333333,21.2974093 3.2,20.4379275 3.2,19.1487047 C3.2,17.8594819 4.05333333,17 5.33333333,17 C6.61333333,17 8.53333333,18.9338342 8.53333333,20.223057 C8.53333333,21.5122798 6.61333333,21.2974093 5.33333333,21.2974093 Z M26.6666667,21.2974093 C25.3866667,21.2974093 23.4666667,21.5122798 23.4666667,20.223057 C23.4666667,18.9338342 25.3866667,17 26.6666667,17 C27.9466667,17 28.8,17.8594819 28.8,19.1487047 C28.8,20.4379275 27.9466667,21.2974093 26.6666667,21.2974093 L26.6666667,21.2974093 Z" id="Shape" fill-rule="nonzero" opacity="0.4"></path>
                                </g>
                            </g>
                        </g>
                    </g>
                </g>
            </g>
        </g>
    </g>
</svg>