<?xml version="1.0" encoding="UTF-8"?>
<svg width="71px" height="36px" viewBox="0 0 71 36" version="1.1" xmlns="http://www.w3.org/2000/svg" xmlns:xlink="http://www.w3.org/1999/xlink">
    <title>2817D20D-AFE2-4C45-AE72-7C5147BAD204</title>
    <g id="v3" stroke="none" stroke-width="1" fill="none" fill-rule="evenodd">
        <g id="[phase-1]-start-desktop" transform="translate(-56.000000, -12.000000)" fill="#FFFFFF" fill-rule="nonzero">
            <g id="Veygo-logo-main-reversed" transform="translate(56.000000, 12.000000)">
                <path d="M18.552039,25.5835044 C18.592805,25.8041502 18.6857762,26.0118385 18.823187,26.1892215 C18.9943744,26.4089091 19.2039555,26.595757 19.4417721,26.740709 C19.7565609,26.9327032 20.1005432,27.0720968 20.4601857,27.1534054 C20.9506403,27.2648603 21.4527552,27.3167074 21.9556359,27.3078219 C22.3796598,27.3100574 22.8029057,27.2712727 23.2194614,27.1920096 C23.6146941,27.1148013 23.9584546,27.0333037 24.250743,26.9475168 C24.497237,26.8782175 24.7386316,26.7919174 24.9731916,26.6892368 L24.9796256,26.6892368 C25.1684209,26.6027854 25.3917795,26.6811639 25.4851558,26.8666319 L26.5881308,29.0725819 C26.6828434,29.2602695 26.6091183,29.4892269 26.4226845,29.5863844 C26.3209657,29.6390821 26.2030087,29.6982138 26.0688134,29.7637795 C25.6815191,29.9441716 25.2822813,30.0977246 24.8739238,30.2233524 C24.3206279,30.395208 23.7561656,30.5287995 23.1845338,30.6231809 C22.4804446,30.7399687 21.7676467,30.7962422 21.0539539,30.7913845 C20.1312543,30.7998179 19.2143982,30.6442076 18.3461503,30.3318116 C16.6682021,29.7356815 15.3258553,28.4495446 14.6585373,26.7986152 C14.2976194,25.9407457 14.1171605,24.9603235 14.1171605,23.8573486 C14.105649,22.8851222 14.2897572,21.9205077 14.6585373,21.0208646 C14.9975923,20.1932592 15.5071317,19.4463315 16.1539876,18.8287019 C16.8032672,18.2186795 17.5654022,17.7412913 18.3976225,17.4233279 C19.2862727,17.0827722 20.2309999,16.9122225 21.1826343,16.9205552 C22.0310829,16.9086101 22.8758112,17.0349623 23.68363,17.2946475 C24.3651995,17.5122576 24.9992887,17.8572171 25.5522534,18.3112228 C26.038265,18.7144036 26.4338255,19.2155095 26.7131346,19.7818561 C26.9751997,20.3108509 27.1126027,20.8928486 27.1148013,21.483195 C27.124126,22.0720725 27.0098363,22.6563591 26.7793131,23.198321 C26.5556543,23.7056895 26.1573578,24.1346242 25.5844235,24.4851252 C25.0114893,24.8356261 24.2292962,25.1064677 23.2378443,25.2976501 C22.2488434,25.4869941 20.9896137,25.5816661 19.460155,25.5816661 L18.552039,25.5835044 Z M18.3461503,22.9014369 C19.4975336,22.9014369 20.3915561,22.8585435 21.0282178,22.7727565 C21.6648794,22.6869696 22.1376268,22.5751402 22.4464598,22.4372683 C22.7559055,22.3000092 22.9449432,22.1468182 23.0135727,21.9776954 C23.0805175,21.8139711 23.1154626,21.6389335 23.1165171,21.4620546 C23.1165171,21.1011367 22.9532155,20.7874016 22.6266123,20.5208493 C22.3000092,20.254297 21.8097981,20.1210209 21.155979,20.1210209 C20.7395813,20.1102139 20.3260217,20.1924862 19.945464,20.3618371 C19.6183509,20.5127915 19.3246244,20.7274618 19.081467,20.9932902 C18.8486325,21.2523231 18.6690508,21.5546449 18.5529581,21.8830234 C18.4342811,22.2104275 18.3648943,22.5536439 18.3470695,22.9014369 L18.3461503,22.9014369 Z" id="Shape"></path>
                <path d="M43.666779,32.1489629 C43.7084897,32.0403128 43.7917704,31.9527586 43.8981992,31.9056677 C44.004628,31.8585769 44.1254331,31.8558305 44.233892,31.8980361 L44.2430834,31.8980361 C44.5262933,32.0030255 44.8146657,32.0935254 45.1070805,32.1691841 C45.4594197,32.2635497 45.8721162,32.3493367 46.3451699,32.4265449 C46.8525544,32.5065161 47.3655842,32.545247 47.8792242,32.5423573 C48.3962285,32.5450764 48.9115547,32.4833237 49.4132786,32.3585281 C49.858174,32.2521312 50.272658,32.0448893 50.6247128,31.7528111 C50.9679427,31.4582976 51.2374049,31.0874723 51.4115016,30.6700573 C51.6008456,30.2319311 51.6955176,29.6859585 51.6955176,29.0321395 L51.6955176,28.7481234 C51.560301,28.8761404 51.4182373,28.9967258 51.2699531,29.1093477 C51.0286873,29.2903611 50.7693315,29.445913 50.4960324,29.5735163 C50.1352636,29.7441566 49.75999,29.8822696 49.3746745,29.9862128 C48.9039615,30.1129391 48.4181467,30.174787 47.9306964,30.170042 C47.0572861,30.1791862 46.1890338,30.0351515 45.3653605,29.7444775 C43.8190277,29.2073695 42.5940535,28.0066722 42.0261037,26.4713992 C41.7041664,25.6010963 41.5467713,24.6785428 41.5619351,23.7507277 C41.5494442,22.7992469 41.7337591,21.8554547 42.103312,20.9785839 C42.44932,20.1660406 42.9582882,19.4330888 43.5987622,18.8250253 C44.2579988,18.2088265 45.034019,17.730963 45.8810013,17.4196513 C46.8176419,17.0761644 47.8090816,16.906408 48.8066424,16.9187169 C49.9376034,16.9072653 51.0581504,17.1356351 52.0944269,17.5887742 C53.0780083,18.0184258 53.9349832,18.6931195 54.5834738,19.548393 C55.011215,20.1296668 55.3301004,20.7836309 55.5246791,21.4785992 C55.7391464,22.2175925 55.8466865,23.1545084 55.8472992,24.2893471 L55.8472992,28.1313766 C55.8472992,29.4721039 55.6582616,30.6283894 55.2801863,31.6002329 C54.902111,32.5720764 54.3778915,33.3714268 53.7075278,33.9982843 C53.0235748,34.6332805 52.2074226,35.1088462 51.3177487,35.3907902 C50.3481249,35.7004749 49.3355056,35.8543533 48.3176568,35.8466865 C47.6202582,35.8504754 46.9235192,35.8031659 46.2330341,35.705138 C45.6642518,35.62394 45.1002932,35.511946 44.5436441,35.3696498 C44.1319133,35.2658571 43.7270179,35.1366221 43.3312908,34.9826894 C43.2344741,34.9434725 43.1474616,34.9070131 43.0702534,34.8733111 C42.8598289,34.7792142 42.7591126,34.537495 42.8404669,34.3218236 L43.666779,32.1489629 Z M45.816661,23.7525659 C45.816661,24.7329881 46.0924048,25.4637091 46.6438923,25.9447287 C47.1953798,26.4257483 47.9000582,26.6662582 48.7579276,26.6662582 C49.600478,26.6662582 50.3011734,26.3997059 50.8600141,25.8666013 C51.4188547,25.3334967 51.6982751,24.6288183 51.6982751,23.7525659 C51.6982751,22.8757008 51.4188547,22.157848 50.8600141,21.5990073 C50.3011734,21.0401667 49.600478,20.7607463 48.7579276,20.7607463 C48.3510232,20.7561599 47.9474936,20.834989 47.5722295,20.9923711 C47.2213398,21.1398231 46.9051358,21.3589744 46.6438923,21.6357732 C46.1078414,22.2086672 45.8117878,22.9652485 45.816661,23.7498085 L45.816661,23.7525659 Z" id="Shape"></path>
                <path d="M56.3243359,23.8555103 C56.3147113,22.906453 56.5080689,21.9663022 56.8914489,21.0980729 C57.2599153,20.2699005 57.7913191,19.5243722 58.4539968,18.9059101 C59.1237984,18.280797 59.9043276,17.7861086 60.7555379,17.4472257 C62.5764192,16.742442 64.5947564,16.742442 66.4156377,17.4472257 C67.2738796,17.7827784 68.0612243,18.2770127 68.7364809,18.9040718 C69.3989692,19.5226998 69.9303437,20.2681871 70.2990288,21.0962346 C71.0544067,22.8569275 71.0544067,24.8504165 70.2990288,26.6111094 C69.9304092,27.4391944 69.3990259,28.1846939 68.7364809,28.8032722 C68.0613721,29.430524 67.2739888,29.9247824 66.4156377,30.2601183 C64.594773,30.9649905 62.5764026,30.9649905 60.7555379,30.2601183 C59.9020399,29.9227862 59.1192329,29.4286607 58.4475627,28.8032722 C57.7848282,28.1848599 57.2534156,27.4393193 56.8850149,26.6111094 C56.5015535,25.7429061 56.3081921,24.8027375 56.3179019,23.853672 M63.5901835,27.0771163 C64.0012802,27.0799848 64.4083856,26.9963716 64.7850731,26.8317044 C65.1478305,26.6732438 65.4762572,26.4456553 65.7520145,26.1616471 C66.0316472,25.87026 66.2467979,25.5232629 66.3834676,25.1432336 C66.6758212,24.3083804 66.6758212,23.3989636 66.3834676,22.5641104 C66.2466985,22.1841291 66.03156,21.8371517 65.7520145,21.5456969 C65.4761872,21.261538 65.1477924,21.0336594 64.7850731,20.8747204 C64.0146021,20.5481883 63.1446246,20.5481883 62.3741536,20.8747204 C62.0164753,21.0358855 61.6927015,21.2635877 61.4200803,21.5456969 C61.1401186,21.8368286 60.9249218,22.1838999 60.7886271,22.5641104 C60.4961275,23.3989387 60.4961275,24.3084052 60.7886271,25.1432336 C60.9248212,25.5234926 61.1400303,25.8705839 61.4200803,26.1616471 C61.6926358,26.4435977 62.0164392,26.6710088 62.3741536,26.8317044 C62.7559626,26.9996087 63.1694559,27.0833105 63.5865069,27.0771163" id="Shape"></path>
                <path d="M37.2437881,17.2698306 C36.9300726,17.2698306 36.675756,17.5241472 36.675756,17.8378627 L36.675756,23.904225 C36.675756,24.8325623 36.4612886,25.5203897 36.0323539,25.9677073 C35.6034192,26.415025 35.0016851,26.6386838 34.2271516,26.6386838 C33.4017586,26.6386838 32.7957352,26.4582248 32.4090812,26.0973069 C32.0224272,25.736389 31.8291002,25.1432336 31.8291002,24.3178406 L31.8291002,17.8378627 C31.8291002,17.5241472 31.5747835,17.2698306 31.261068,17.2698306 L28.2444315,17.2698306 C27.930716,17.2698306 27.6763994,17.5241472 27.6763994,17.8378627 L27.6763994,25.1708079 C27.6763994,26.0286773 27.8182542,26.7722663 28.1019639,27.4015748 C28.3690297,28.0085457 28.7755912,28.5439095 29.2885811,28.9641227 C29.8134817,29.3876797 30.4188419,29.7003658 31.0680474,29.8832685 C31.7855264,30.0865237 32.5283107,30.1864901 33.2739974,30.1801526 C33.95945,30.1776035 34.6395974,30.0598438 35.2860075,29.8317963 C35.9563712,29.5995588 36.4548546,29.2858237 36.7814578,28.890591 C36.7814578,30.1970036 36.4891694,31.1339195 35.9045927,31.7013389 C35.3200159,32.2687582 34.3659426,32.5524679 33.0423726,32.5524679 C32.5895068,32.5526571 32.1371558,32.5219476 31.6884708,32.4605533 C31.2497319,32.3992769 30.8584822,32.3306474 30.5147217,32.2546647 C30.1709611,32.1786819 29.8829621,32.1014737 29.6507246,32.0230399 L29.6424523,32.0230399 C29.5237365,31.9834881 29.3941676,31.9927463 29.2822815,32.0487756 C29.1703953,32.1048049 29.0853684,32.2030099 29.0459267,32.3217623 L28.3584056,34.4027084 C28.2628019,34.6905565 28.4146712,35.0020518 28.7003278,35.1040167 L28.7095193,35.1040167 C29.0911666,35.2303561 29.4792933,35.3362088 29.8722387,35.421122 C30.3532584,35.532645 30.9117926,35.6316064 31.5478415,35.7180061 C32.2406048,35.8073791 32.9385652,35.8503683 33.63706,35.8466865 C34.6318299,35.8591075 35.6229699,35.7243744 36.5783265,35.4468581 C37.4195066,35.1999471 38.1948644,34.768146 38.8476975,34.1830326 C39.4837464,33.6070345 39.9739575,32.8591562 40.3183308,31.9393977 C40.6627041,31.0196391 40.8345844,29.9065535 40.8339733,28.6001409 L40.8339733,17.8378627 C40.8339733,17.5241472 40.579655,17.2698306 40.2659395,17.2698306 L37.2437881,17.2698306 Z" id="Shape"></path>
                <path d="M23.6817917,10.7981249 L23.6817917,10.7981249 L22.2699838,7.39728546 C14.8249027,10.4975643 9.23098134,17.1724011 7.64177824,25.2673182 L7.64177824,25.2673182 C7.64177824,25.2590459 7.63166764,25.2590459 7.62431447,25.2673182 C7.537302,25.0693955 7.43251938,24.8282729 7.3099666,24.5439505 C7.0691504,23.9857226 6.79830877,23.3423205 6.49744171,22.6137443 C6.19657465,21.8851681 5.88283955,21.088575 5.5562364,20.2239652 C5.41468795,19.850792 5.01485952,18.7689574 4.58378014,17.5952082 C4.51291911,17.4025613 4.3294732,17.274516 4.12420724,17.2744263 L0.502772757,17.2744263 C0.341809278,17.2737221 0.190809312,17.35228 0.09899554,17.4844919 C0.00718176771,17.6167037 -0.0136840625,17.7856325 0.0431998529,17.9362113 C0.629614878,19.4987592 1.25187659,21.1532216 1.33000398,21.3370508 C1.40813138,21.5208799 1.57082018,21.9004871 1.84564478,22.5098808 C2.12046938,23.1192745 2.46422991,23.860106 2.87692638,24.7277797 C3.28962284,25.5954533 3.74919575,26.5293054 4.25564509,27.5256595 C4.67293728,28.3473758 5.09942094,29.151322 5.53509605,29.9374981 C5.70788371,30.247918 6.03555253,30.4400846 6.3908208,30.4393538 L10.4111646,30.4393538 C10.7619743,30.4400501 11.0500118,30.1621834 11.0619198,29.8115751 C11.3119274,21.4473483 16.5326756,14.3055853 23.8656209,11.252183 L23.6817917,10.7981249 Z" id="Shape"></path>
                <path d="M38.9175526,5.8632311 L36.9128956,0.760133583 C36.8059456,0.486911399 36.5945408,0.267562327 36.325448,0.150610457 C36.0563552,0.0336585873 35.7517541,0.0287435796 35.4790282,0.136952725 L34.2648365,0.613989399 C34.1076123,0.53102886 33.9220602,0.520627206 33.7565489,0.585495879 L31.8097981,1.35022519 C31.6442288,1.41554359 31.515355,1.54978717 31.4568461,1.71788351 L28.0863384,3.04145348 C27.9291141,2.95849294 27.7435621,2.94809128 27.5780508,3.01295996 L25.6313,3.77768927 C25.4657307,3.84300767 25.3368569,3.97725124 25.278348,4.14534759 L24.2093814,4.56539722 C23.9370603,4.67237931 23.7184033,4.88317717 23.6015291,5.1514017 C23.4846549,5.41962622 23.4791409,5.72329743 23.5862006,5.9955881 L25.5908576,11.0986856 C25.698359,11.3709569 25.9096836,11.5893275 26.1782839,11.705698 C26.4468842,11.8220684 26.7507272,11.826893 27.0228867,11.719109 L28.3096909,11.2135788 C28.459703,11.2813606 28.630735,11.2856695 28.7839701,11.2255277 L30.7307209,10.4607984 C30.883726,10.4006805 31.0060088,10.2813803 31.0698857,10.1299059 L34.488189,8.78703392 C34.6382012,8.85481565 34.8092332,8.85912459 34.9624682,8.79898281 L36.909219,8.0342535 C37.0621665,7.97404638 37.1844192,7.8547755 37.2483838,7.70336101 L38.2980483,7.29066454 C38.8621901,7.06642031 39.1390685,6.42844976 38.9175526,5.8632311 Z M27.9944238,10.376237 C27.2676096,9.69450316 26.7004516,8.86055819 26.3335274,7.93406661 C25.9442078,6.99967619 25.7602087,5.99253987 25.7939888,4.98085113 C25.791352,4.91003368 25.8184571,4.84134159 25.8687416,4.7914063 C25.9190261,4.741471 25.9879054,4.7148452 26.0587028,4.71797543 L28.367597,10.3799136 C28.319053,10.4315872 28.2511,10.4605885 28.1802044,10.4599024 C28.1093088,10.4591916 28.0419403,10.428857 27.9944238,10.376237 L27.9944238,10.376237 Z M34.2041729,7.90465394 C34.2041729,8.18039768 33.8604124,8.1326021 33.8604124,8.1326021 C33.8604124,8.1326021 33.1471552,8.16844879 32.9339134,8.16754702 C32.7206716,8.1666105 32.6361102,8.05539385 32.6250804,7.78884157 C32.6131315,7.47817029 32.2813199,6.10220901 32.1223077,5.67480621 C31.929287,5.15640798 31.2187873,4.04240326 30.9430436,3.694047 C30.6672999,3.34569074 30.9430436,3.22712093 30.9430436,3.22712093 L31.6728454,2.56809339 C31.7208775,2.51595003 31.7885375,2.48628449 31.859432,2.48628449 C31.9303264,2.48628449 31.9979864,2.51595003 32.0460186,2.56809339 C33.5015157,3.95019332 34.2889706,5.89369899 34.2060112,7.89913907 L34.2041729,7.90465394 Z M36.1757407,1.5892031 C36.0029002,1.65612005 35.8084942,1.57063072 35.7409847,1.39802077 L35.6334447,1.12227703 C35.5900986,1.01046392 35.6096968,0.884019495 35.6848567,0.790574152 C35.7600167,0.697128809 35.8793199,0.65087912 35.9978259,0.669246898 C36.1163319,0.687614676 36.2160369,0.767809418 36.2593829,0.879622537 L36.366923,1.15536628 C36.3999248,1.23871055 36.3982986,1.33177931 36.3624053,1.41391978 C36.326512,1.49606024 36.2593203,1.56047854 36.1757407,1.59287968 L36.1757407,1.5892031 Z M38.1353595,6.74101535 C37.962519,6.8079323 37.768113,6.72244297 37.7006036,6.54983302 L37.5921444,6.27408928 C37.5248834,6.10124119 37.6104786,5.90659432 37.7833267,5.83933331 C37.9561748,5.77207231 38.1508217,5.85766755 38.2180827,6.03051564 L38.3256227,6.30625938 C38.3592524,6.3897028 38.358058,6.48313973 38.3223065,6.5656963 C38.2865551,6.64825287 38.2192256,6.71304968 38.1353595,6.74561108 L38.1353595,6.74101535 Z" id="Shape"></path>
            </g>
        </g>
    </g>
</svg>
